<mxfile host="Electron" agent="Mozilla/5.0 (X11; Linux x86_64) AppleWebKit/537.36 (KHTML, like Gecko) draw.io/26.2.2 Chrome/134.0.6998.178 Electron/35.1.2 Safari/537.36" version="26.2.2">
  <diagram name="Page-1" id="pAAVrMAfwsiJYy0Wg43e">
    <mxGraphModel dx="2012" dy="843" grid="1" gridSize="10" guides="1" tooltips="1" connect="1" arrows="1" fold="1" page="1" pageScale="1" pageWidth="583" pageHeight="827" math="0" shadow="0">
      <root>
        <mxCell id="0" />
        <mxCell id="1" parent="0" />
        <mxCell id="mvfTQDdPSuTvWXXwRAFx-1" value="&lt;p style=&quot;margin:0px;margin-top:4px;margin-left:7px;text-align:left;&quot;&gt;&lt;b&gt;req&lt;/b&gt;&amp;nbsp;Notification Event&lt;/p&gt;" style="html=1;shape=mxgraph.sysml.package;overflow=fill;labelX=133.5;strokeWidth=2;align=center;" parent="1" vertex="1">
          <mxGeometry x="-240" y="30" width="995" height="700" as="geometry" />
        </mxCell>
        <mxCell id="mvfTQDdPSuTvWXXwRAFx-2" value="" style="rounded=0;html=1;labelBackgroundColor=none;endArrow=none;edgeStyle=elbowEdgeStyle;elbow=vertical;startArrow=sysMLPackCont;startSize=12;exitX=0.5;exitY=1;exitDx=0;exitDy=0;" parent="1" source="mvfTQDdPSuTvWXXwRAFx-9" target="mvfTQDdPSuTvWXXwRAFx-16" edge="1">
          <mxGeometry relative="1" as="geometry">
            <mxPoint x="380" y="300.0000000000001" as="sourcePoint" />
            <mxPoint x="290" y="390" as="targetPoint" />
          </mxGeometry>
        </mxCell>
        <mxCell id="mvfTQDdPSuTvWXXwRAFx-3" value="" style="rounded=0;html=1;labelBackgroundColor=none;endArrow=none;edgeStyle=elbowEdgeStyle;elbow=vertical;startArrow=sysMLPackCont;startSize=12;exitX=0.5;exitY=1;exitDx=0;exitDy=0;" parent="1" source="mvfTQDdPSuTvWXXwRAFx-9" target="mvfTQDdPSuTvWXXwRAFx-10" edge="1">
          <mxGeometry relative="1" as="geometry">
            <mxPoint x="380" y="300" as="sourcePoint" />
            <mxPoint x="470" y="390.0000000000001" as="targetPoint" />
          </mxGeometry>
        </mxCell>
        <mxCell id="mvfTQDdPSuTvWXXwRAFx-55" style="edgeStyle=orthogonalEdgeStyle;rounded=0;orthogonalLoop=1;jettySize=auto;html=1;entryX=0.5;entryY=1;entryDx=0;entryDy=0;exitX=0.5;exitY=0;exitDx=0;exitDy=0;endArrow=circlePlus;endFill=0;endSize=5;" parent="1" source="mvfTQDdPSuTvWXXwRAFx-50" target="mvfTQDdPSuTvWXXwRAFx-9" edge="1">
          <mxGeometry relative="1" as="geometry" />
        </mxCell>
        <mxCell id="mvfTQDdPSuTvWXXwRAFx-4" value="" style="fontStyle=1;align=center;verticalAlign=middle;childLayout=stackLayout;horizontal=1;horizontalStack=0;resizeParent=1;resizeParentMax=0;resizeLast=0;marginBottom=0;" parent="1" vertex="1">
          <mxGeometry x="292" y="160" width="200" height="120" as="geometry" />
        </mxCell>
        <mxCell id="mvfTQDdPSuTvWXXwRAFx-5" value="&amp;lt;&amp;lt;requirement&amp;gt;&amp;gt;" style="html=1;align=center;spacing=0;verticalAlign=middle;strokeColor=none;fillColor=none;whiteSpace=wrap;spacingTop=3;" parent="mvfTQDdPSuTvWXXwRAFx-4" vertex="1">
          <mxGeometry width="200" height="16" as="geometry" />
        </mxCell>
        <mxCell id="mvfTQDdPSuTvWXXwRAFx-6" value="Notification Event" style="html=1;align=center;spacing=0;verticalAlign=middle;strokeColor=none;fillColor=none;whiteSpace=wrap;fontStyle=1" parent="mvfTQDdPSuTvWXXwRAFx-4" vertex="1">
          <mxGeometry y="16" width="200" height="18" as="geometry" />
        </mxCell>
        <mxCell id="mvfTQDdPSuTvWXXwRAFx-7" value="" style="line;strokeWidth=0.25;fillColor=none;align=left;verticalAlign=middle;spacingTop=-1;spacingLeft=3;spacingRight=3;rotatable=0;labelPosition=right;points=[];portConstraint=eastwest;" parent="mvfTQDdPSuTvWXXwRAFx-4" vertex="1">
          <mxGeometry y="34" width="200" height="8" as="geometry" />
        </mxCell>
        <mxCell id="mvfTQDdPSuTvWXXwRAFx-8" value="Id=&quot;NOTIF-1&quot;" style="html=1;align=left;spacing=0;verticalAlign=middle;strokeColor=none;fillColor=none;whiteSpace=wrap;spacingLeft=10;" parent="mvfTQDdPSuTvWXXwRAFx-4" vertex="1">
          <mxGeometry y="42" width="200" height="16" as="geometry" />
        </mxCell>
        <mxCell id="mvfTQDdPSuTvWXXwRAFx-9" value="text=&quot;The system shall notify the user about incoming or outgoing events such as heavy rains, road closures, sport events, etc.&quot;" style="html=1;align=left;spacing=0;verticalAlign=middle;strokeColor=none;fillColor=none;whiteSpace=wrap;spacingLeft=10;" parent="mvfTQDdPSuTvWXXwRAFx-4" vertex="1">
          <mxGeometry y="58" width="200" height="62" as="geometry" />
        </mxCell>
        <mxCell id="mvfTQDdPSuTvWXXwRAFx-10" value="" style="fontStyle=1;align=center;verticalAlign=middle;childLayout=stackLayout;horizontal=1;horizontalStack=0;resizeParent=1;resizeParentMax=0;resizeLast=0;marginBottom=0;" parent="1" vertex="1">
          <mxGeometry x="500" y="390" width="190" height="120" as="geometry" />
        </mxCell>
        <mxCell id="mvfTQDdPSuTvWXXwRAFx-11" value="&amp;lt;&amp;lt;requirement&amp;gt;&amp;gt;" style="html=1;align=center;spacing=0;verticalAlign=middle;strokeColor=none;fillColor=none;whiteSpace=wrap;spacingTop=3;" parent="mvfTQDdPSuTvWXXwRAFx-10" vertex="1">
          <mxGeometry width="190" height="16" as="geometry" />
        </mxCell>
        <mxCell id="mvfTQDdPSuTvWXXwRAFx-12" value="Notify User" style="html=1;align=center;spacing=0;verticalAlign=middle;strokeColor=none;fillColor=none;whiteSpace=wrap;fontStyle=1" parent="mvfTQDdPSuTvWXXwRAFx-10" vertex="1">
          <mxGeometry y="16" width="190" height="18" as="geometry" />
        </mxCell>
        <mxCell id="mvfTQDdPSuTvWXXwRAFx-13" value="" style="line;strokeWidth=0.25;fillColor=none;align=left;verticalAlign=middle;spacingTop=-1;spacingLeft=3;spacingRight=3;rotatable=0;labelPosition=right;points=[];portConstraint=eastwest;" parent="mvfTQDdPSuTvWXXwRAFx-10" vertex="1">
          <mxGeometry y="34" width="190" height="8" as="geometry" />
        </mxCell>
        <mxCell id="mvfTQDdPSuTvWXXwRAFx-14" value="Id=&quot;NOTIF-1.3&quot;" style="html=1;align=left;spacing=0;verticalAlign=middle;strokeColor=none;fillColor=none;whiteSpace=wrap;spacingLeft=10;" parent="mvfTQDdPSuTvWXXwRAFx-10" vertex="1">
          <mxGeometry y="42" width="190" height="16" as="geometry" />
        </mxCell>
        <mxCell id="mvfTQDdPSuTvWXXwRAFx-15" value="text=&quot;The system shall notify the user of any relevant event by sending a notification and storing it in the users inbox.&quot;" style="html=1;align=left;spacing=0;verticalAlign=middle;strokeColor=none;fillColor=none;whiteSpace=wrap;spacingLeft=10;" parent="mvfTQDdPSuTvWXXwRAFx-10" vertex="1">
          <mxGeometry y="58" width="190" height="62" as="geometry" />
        </mxCell>
        <mxCell id="mvfTQDdPSuTvWXXwRAFx-16" value="" style="fontStyle=1;align=center;verticalAlign=middle;childLayout=stackLayout;horizontal=1;horizontalStack=0;resizeParent=1;resizeParentMax=0;resizeLast=0;marginBottom=0;" parent="1" vertex="1">
          <mxGeometry x="297" y="390" width="190" height="120" as="geometry" />
        </mxCell>
        <mxCell id="mvfTQDdPSuTvWXXwRAFx-17" value="&amp;lt;&amp;lt;requirement&amp;gt;&amp;gt;" style="html=1;align=center;spacing=0;verticalAlign=middle;strokeColor=none;fillColor=none;whiteSpace=wrap;spacingTop=3;" parent="mvfTQDdPSuTvWXXwRAFx-16" vertex="1">
          <mxGeometry width="190" height="16" as="geometry" />
        </mxCell>
        <mxCell id="mvfTQDdPSuTvWXXwRAFx-18" value="Retrieve User Data" style="html=1;align=center;spacing=0;verticalAlign=middle;strokeColor=none;fillColor=none;whiteSpace=wrap;fontStyle=1" parent="mvfTQDdPSuTvWXXwRAFx-16" vertex="1">
          <mxGeometry y="16" width="190" height="18" as="geometry" />
        </mxCell>
        <mxCell id="mvfTQDdPSuTvWXXwRAFx-19" value="" style="line;strokeWidth=0.25;fillColor=none;align=left;verticalAlign=middle;spacingTop=-1;spacingLeft=3;spacingRight=3;rotatable=0;labelPosition=right;points=[];portConstraint=eastwest;" parent="mvfTQDdPSuTvWXXwRAFx-16" vertex="1">
          <mxGeometry y="34" width="190" height="8" as="geometry" />
        </mxCell>
        <mxCell id="mvfTQDdPSuTvWXXwRAFx-20" value="Id=&quot;NOTIF-1.2&quot;" style="html=1;align=left;spacing=0;verticalAlign=middle;strokeColor=none;fillColor=none;whiteSpace=wrap;spacingLeft=10;" parent="mvfTQDdPSuTvWXXwRAFx-16" vertex="1">
          <mxGeometry y="42" width="190" height="16" as="geometry" />
        </mxCell>
        <mxCell id="mvfTQDdPSuTvWXXwRAFx-21" value="text=&quot;The system shall retrieve user related data such as geolocation, common routes or current destination.&lt;span style=&quot;background-color: transparent; color: light-dark(rgb(0, 0, 0), rgb(255, 255, 255));&quot;&gt;&quot;&lt;/span&gt;" style="html=1;align=left;spacing=0;verticalAlign=middle;strokeColor=none;fillColor=none;whiteSpace=wrap;spacingLeft=10;" parent="mvfTQDdPSuTvWXXwRAFx-16" vertex="1">
          <mxGeometry y="58" width="190" height="62" as="geometry" />
        </mxCell>
        <mxCell id="mvfTQDdPSuTvWXXwRAFx-31" style="edgeStyle=orthogonalEdgeStyle;rounded=0;orthogonalLoop=1;jettySize=auto;html=1;entryX=0;entryY=0.25;entryDx=0;entryDy=0;endArrow=circlePlus;endFill=0;startSize=6;endSize=5;" parent="1" source="mvfTQDdPSuTvWXXwRAFx-32" target="mvfTQDdPSuTvWXXwRAFx-9" edge="1">
          <mxGeometry relative="1" as="geometry" />
        </mxCell>
        <mxCell id="mvfTQDdPSuTvWXXwRAFx-70" style="edgeStyle=orthogonalEdgeStyle;rounded=0;orthogonalLoop=1;jettySize=auto;html=1;endArrow=circlePlus;endFill=0;endSize=5;" parent="1" source="mvfTQDdPSuTvWXXwRAFx-64" target="mvfTQDdPSuTvWXXwRAFx-32" edge="1">
          <mxGeometry relative="1" as="geometry" />
        </mxCell>
        <mxCell id="mvfTQDdPSuTvWXXwRAFx-79" style="edgeStyle=orthogonalEdgeStyle;rounded=0;orthogonalLoop=1;jettySize=auto;html=1;endArrow=circlePlus;endFill=0;endSize=5;" parent="1" source="mvfTQDdPSuTvWXXwRAFx-73" target="mvfTQDdPSuTvWXXwRAFx-32" edge="1">
          <mxGeometry relative="1" as="geometry" />
        </mxCell>
        <mxCell id="mvfTQDdPSuTvWXXwRAFx-32" value="" style="fontStyle=1;align=center;verticalAlign=middle;childLayout=stackLayout;horizontal=1;horizontalStack=0;resizeParent=1;resizeParentMax=0;resizeLast=0;marginBottom=0;" parent="1" vertex="1">
          <mxGeometry x="-100" y="120" width="170" height="120" as="geometry" />
        </mxCell>
        <mxCell id="mvfTQDdPSuTvWXXwRAFx-33" value="&amp;lt;&amp;lt;NF requirement&amp;gt;&amp;gt;" style="html=1;align=center;spacing=0;verticalAlign=middle;strokeColor=none;fillColor=none;whiteSpace=wrap;spacingTop=3;" parent="mvfTQDdPSuTvWXXwRAFx-32" vertex="1">
          <mxGeometry width="170" height="16" as="geometry" />
        </mxCell>
        <mxCell id="mvfTQDdPSuTvWXXwRAFx-34" value="Dependability" style="html=1;align=center;spacing=0;verticalAlign=middle;strokeColor=none;fillColor=none;whiteSpace=wrap;fontStyle=1" parent="mvfTQDdPSuTvWXXwRAFx-32" vertex="1">
          <mxGeometry y="16" width="170" height="18" as="geometry" />
        </mxCell>
        <mxCell id="mvfTQDdPSuTvWXXwRAFx-35" value="" style="line;strokeWidth=0.25;fillColor=none;align=left;verticalAlign=middle;spacingTop=-1;spacingLeft=3;spacingRight=3;rotatable=0;labelPosition=right;points=[];portConstraint=eastwest;" parent="mvfTQDdPSuTvWXXwRAFx-32" vertex="1">
          <mxGeometry y="34" width="170" height="8" as="geometry" />
        </mxCell>
        <mxCell id="mvfTQDdPSuTvWXXwRAFx-36" value="Id=&quot;NOTIF-NF-1&quot;" style="html=1;align=left;spacing=0;verticalAlign=middle;strokeColor=none;fillColor=none;whiteSpace=wrap;spacingLeft=10;" parent="mvfTQDdPSuTvWXXwRAFx-32" vertex="1">
          <mxGeometry y="42" width="170" height="16" as="geometry" />
        </mxCell>
        <mxCell id="mvfTQDdPSuTvWXXwRAFx-37" value="text=&quot;The system shall notify the user of possible events before starting a journey.&quot;" style="html=1;align=left;spacing=0;verticalAlign=middle;strokeColor=none;fillColor=none;whiteSpace=wrap;spacingLeft=10;" parent="mvfTQDdPSuTvWXXwRAFx-32" vertex="1">
          <mxGeometry y="58" width="170" height="62" as="geometry" />
        </mxCell>
        <mxCell id="mvfTQDdPSuTvWXXwRAFx-42" value="" style="fontStyle=1;align=center;verticalAlign=middle;childLayout=stackLayout;horizontal=1;horizontalStack=0;resizeParent=1;resizeParentMax=0;resizeLast=0;marginBottom=0;" parent="1" vertex="1">
          <mxGeometry x="170" y="580" width="190" height="130" as="geometry" />
        </mxCell>
        <mxCell id="mvfTQDdPSuTvWXXwRAFx-43" value="&amp;lt;&amp;lt;requirement&amp;gt;&amp;gt;" style="html=1;align=center;spacing=0;verticalAlign=middle;strokeColor=none;fillColor=none;whiteSpace=wrap;spacingTop=3;" parent="mvfTQDdPSuTvWXXwRAFx-42" vertex="1">
          <mxGeometry width="190" height="16" as="geometry" />
        </mxCell>
        <mxCell id="mvfTQDdPSuTvWXXwRAFx-44" value="List Possible Events" style="html=1;align=center;spacing=0;verticalAlign=middle;strokeColor=none;fillColor=none;whiteSpace=wrap;fontStyle=1" parent="mvfTQDdPSuTvWXXwRAFx-42" vertex="1">
          <mxGeometry y="16" width="190" height="18" as="geometry" />
        </mxCell>
        <mxCell id="mvfTQDdPSuTvWXXwRAFx-45" value="" style="line;strokeWidth=0.25;fillColor=none;align=left;verticalAlign=middle;spacingTop=-1;spacingLeft=3;spacingRight=3;rotatable=0;labelPosition=right;points=[];portConstraint=eastwest;" parent="mvfTQDdPSuTvWXXwRAFx-42" vertex="1">
          <mxGeometry y="34" width="190" height="8" as="geometry" />
        </mxCell>
        <mxCell id="mvfTQDdPSuTvWXXwRAFx-46" value="Id=&quot;NOTIF-D-1&quot;" style="html=1;align=left;spacing=0;verticalAlign=middle;strokeColor=none;fillColor=none;whiteSpace=wrap;spacingLeft=10;" parent="mvfTQDdPSuTvWXXwRAFx-42" vertex="1">
          <mxGeometry y="42" width="190" height="16" as="geometry" />
        </mxCell>
        <mxCell id="mvfTQDdPSuTvWXXwRAFx-47" value="text=&quot;The system shall iterate over the retrived events and select those that are relevant to the user based on the retrieved user data.&lt;span style=&quot;background-color: transparent; color: light-dark(rgb(0, 0, 0), rgb(255, 255, 255));&quot;&gt;&quot;&lt;/span&gt;" style="html=1;align=left;spacing=0;verticalAlign=middle;strokeColor=none;fillColor=none;whiteSpace=wrap;spacingLeft=10;" parent="mvfTQDdPSuTvWXXwRAFx-42" vertex="1">
          <mxGeometry y="58" width="190" height="72" as="geometry" />
        </mxCell>
        <mxCell id="mvfTQDdPSuTvWXXwRAFx-49" value="" style="fontStyle=1;align=center;verticalAlign=middle;childLayout=stackLayout;horizontal=1;horizontalStack=0;resizeParent=1;resizeParentMax=0;resizeLast=0;marginBottom=0;" parent="1" vertex="1">
          <mxGeometry x="80" y="390" width="190" height="120" as="geometry" />
        </mxCell>
        <mxCell id="mvfTQDdPSuTvWXXwRAFx-50" value="&amp;lt;&amp;lt;requirement&amp;gt;&amp;gt;" style="html=1;align=center;spacing=0;verticalAlign=middle;strokeColor=none;fillColor=none;whiteSpace=wrap;spacingTop=3;" parent="mvfTQDdPSuTvWXXwRAFx-49" vertex="1">
          <mxGeometry width="190" height="16" as="geometry" />
        </mxCell>
        <mxCell id="mvfTQDdPSuTvWXXwRAFx-51" value="Retrieve Events Data" style="html=1;align=center;spacing=0;verticalAlign=middle;strokeColor=none;fillColor=none;whiteSpace=wrap;fontStyle=1" parent="mvfTQDdPSuTvWXXwRAFx-49" vertex="1">
          <mxGeometry y="16" width="190" height="18" as="geometry" />
        </mxCell>
        <mxCell id="mvfTQDdPSuTvWXXwRAFx-52" value="" style="line;strokeWidth=0.25;fillColor=none;align=left;verticalAlign=middle;spacingTop=-1;spacingLeft=3;spacingRight=3;rotatable=0;labelPosition=right;points=[];portConstraint=eastwest;" parent="mvfTQDdPSuTvWXXwRAFx-49" vertex="1">
          <mxGeometry y="34" width="190" height="8" as="geometry" />
        </mxCell>
        <mxCell id="mvfTQDdPSuTvWXXwRAFx-53" value="Id=&quot;NOTIF-1.1&quot;" style="html=1;align=left;spacing=0;verticalAlign=middle;strokeColor=none;fillColor=none;whiteSpace=wrap;spacingLeft=10;" parent="mvfTQDdPSuTvWXXwRAFx-49" vertex="1">
          <mxGeometry y="42" width="190" height="16" as="geometry" />
        </mxCell>
        <mxCell id="mvfTQDdPSuTvWXXwRAFx-54" value="text=&quot;The system shall retrive all outgoing and incoming events from a database.&quot;" style="html=1;align=left;spacing=0;verticalAlign=middle;strokeColor=none;fillColor=none;whiteSpace=wrap;spacingLeft=10;" parent="mvfTQDdPSuTvWXXwRAFx-49" vertex="1">
          <mxGeometry y="58" width="190" height="62" as="geometry" />
        </mxCell>
        <mxCell id="mvfTQDdPSuTvWXXwRAFx-59" value="&amp;lt;&amp;lt;deriveReq&amp;gt;&amp;gt;" style="endArrow=open;html=1;edgeStyle=none;endSize=12;dashed=1;rounded=0;exitX=0.5;exitY=0;exitDx=0;exitDy=0;entryX=0.5;entryY=1;entryDx=0;entryDy=0;" parent="1" source="mvfTQDdPSuTvWXXwRAFx-43" target="mvfTQDdPSuTvWXXwRAFx-21" edge="1">
          <mxGeometry x="0.0625" y="-4" relative="1" as="geometry">
            <mxPoint x="310" y="540" as="sourcePoint" />
            <mxPoint x="430" y="540" as="targetPoint" />
            <mxPoint as="offset" />
          </mxGeometry>
        </mxCell>
        <mxCell id="mvfTQDdPSuTvWXXwRAFx-60" value="&amp;lt;&amp;lt;deriveReq&amp;gt;&amp;gt;" style="endArrow=open;html=1;edgeStyle=none;endSize=12;dashed=1;rounded=0;exitX=0.5;exitY=0;exitDx=0;exitDy=0;entryX=0.5;entryY=1;entryDx=0;entryDy=0;" parent="1" source="mvfTQDdPSuTvWXXwRAFx-43" target="mvfTQDdPSuTvWXXwRAFx-54" edge="1">
          <mxGeometry x="0.0625" y="-4" relative="1" as="geometry">
            <mxPoint x="310" y="540" as="sourcePoint" />
            <mxPoint x="430" y="540" as="targetPoint" />
            <mxPoint as="offset" />
          </mxGeometry>
        </mxCell>
        <mxCell id="mvfTQDdPSuTvWXXwRAFx-64" value="" style="fontStyle=1;align=center;verticalAlign=middle;childLayout=stackLayout;horizontal=1;horizontalStack=0;resizeParent=1;resizeParentMax=0;resizeLast=0;marginBottom=0;" parent="1" vertex="1">
          <mxGeometry x="-200" y="310" width="170" height="42" as="geometry" />
        </mxCell>
        <mxCell id="mvfTQDdPSuTvWXXwRAFx-65" value="&amp;lt;&amp;lt;NF requirement&amp;gt;&amp;gt;" style="html=1;align=center;spacing=0;verticalAlign=middle;strokeColor=none;fillColor=none;whiteSpace=wrap;spacingTop=3;" parent="mvfTQDdPSuTvWXXwRAFx-64" vertex="1">
          <mxGeometry width="170" height="16" as="geometry" />
        </mxCell>
        <mxCell id="mvfTQDdPSuTvWXXwRAFx-66" value="On Start Up" style="html=1;align=center;spacing=0;verticalAlign=middle;strokeColor=none;fillColor=none;whiteSpace=wrap;fontStyle=1" parent="mvfTQDdPSuTvWXXwRAFx-64" vertex="1">
          <mxGeometry y="16" width="170" height="18" as="geometry" />
        </mxCell>
        <mxCell id="mvfTQDdPSuTvWXXwRAFx-67" value="" style="line;strokeWidth=0.25;fillColor=none;align=left;verticalAlign=middle;spacingTop=-1;spacingLeft=3;spacingRight=3;rotatable=0;labelPosition=right;points=[];portConstraint=eastwest;" parent="mvfTQDdPSuTvWXXwRAFx-64" vertex="1">
          <mxGeometry y="34" width="170" height="8" as="geometry" />
        </mxCell>
        <mxCell id="mvfTQDdPSuTvWXXwRAFx-73" value="" style="fontStyle=1;align=center;verticalAlign=middle;childLayout=stackLayout;horizontal=1;horizontalStack=0;resizeParent=1;resizeParentMax=0;resizeLast=0;marginBottom=0;" parent="1" vertex="1">
          <mxGeometry x="-10" y="310" width="170" height="42" as="geometry" />
        </mxCell>
        <mxCell id="mvfTQDdPSuTvWXXwRAFx-74" value="&amp;lt;&amp;lt;NF requirement&amp;gt;&amp;gt;" style="html=1;align=center;spacing=0;verticalAlign=middle;strokeColor=none;fillColor=none;whiteSpace=wrap;spacingTop=3;" parent="mvfTQDdPSuTvWXXwRAFx-73" vertex="1">
          <mxGeometry width="170" height="16" as="geometry" />
        </mxCell>
        <mxCell id="mvfTQDdPSuTvWXXwRAFx-75" value="On Route Selection" style="html=1;align=center;spacing=0;verticalAlign=middle;strokeColor=none;fillColor=none;whiteSpace=wrap;fontStyle=1" parent="mvfTQDdPSuTvWXXwRAFx-73" vertex="1">
          <mxGeometry y="16" width="170" height="18" as="geometry" />
        </mxCell>
        <mxCell id="mvfTQDdPSuTvWXXwRAFx-76" value="" style="line;strokeWidth=0.25;fillColor=none;align=left;verticalAlign=middle;spacingTop=-1;spacingLeft=3;spacingRight=3;rotatable=0;labelPosition=right;points=[];portConstraint=eastwest;" parent="mvfTQDdPSuTvWXXwRAFx-73" vertex="1">
          <mxGeometry y="34" width="170" height="8" as="geometry" />
        </mxCell>
      </root>
    </mxGraphModel>
  </diagram>
</mxfile>
